<?xml version="1.0" encoding="iso-8859-1"?>
<!-- Generator: Adobe Illustrator 16.0.0, SVG Export Plug-In . SVG Version: 6.00 Build 0)  -->
<!DOCTYPE svg PUBLIC "-//W3C//DTD SVG 1.1//EN" "http://www.w3.org/Graphics/SVG/1.1/DTD/svg11.dtd">
<svg version="1.1" id="Capa_1" xmlns="http://www.w3.org/2000/svg" xmlns:xlink="http://www.w3.org/1999/xlink" x="0px" y="0px"
	 width="58.587px" height="58.588px" viewBox="0 0 58.587 58.588" style="enable-background:new 0 0 58.587 58.588;"
	 xml:space="preserve">
<g>
	<g>
		<path d="M51.897,23.702L48.294,6.887H10.289L6.687,23.702H0v26.323h3.908v7.717h11.679v-7.717H43v7.717h11.679v-7.717h3.908
			V23.702H51.897z M11.862,37.32H3.88v-7.982h7.981V37.32z M37.999,39.195h-6.371v6.373h-4.672v-6.373h-6.37v-4.672h6.37v-6.367
			h4.672v6.367h6.371V39.195z M37.724,23.702c0.155-1.785,1.647-3.192,3.472-3.192c1.82,0,3.308,1.409,3.468,3.192H37.724z
			 M41.196,18.17c-3.115,0-5.643,2.458-5.808,5.529H11.177l2.602-12.144H44.8L47.403,23.7H47
			C46.835,20.63,44.305,18.17,41.196,18.17z M54.703,37.32h-7.981v-7.982h7.981V37.32z"/>
		<path d="M21.679,5.517h15.224c1.209,0,2.19-1.043,2.19-2.335c0-1.289-0.981-2.336-2.19-2.336H21.679
			c-1.21,0-2.192,1.047-2.192,2.336C19.487,4.474,20.472,5.517,21.679,5.517z"/>
	</g>
</g>
<g>
</g>
<g>
</g>
<g>
</g>
<g>
</g>
<g>
</g>
<g>
</g>
<g>
</g>
<g>
</g>
<g>
</g>
<g>
</g>
<g>
</g>
<g>
</g>
<g>
</g>
<g>
</g>
<g>
</g>
</svg>
