<svg xmlns="http://www.w3.org/2000/svg" width="36" height="36" fill="none" viewBox="0 0 36 36">
  <path stroke="#000" stroke-linecap="round" stroke-linejoin="round" stroke-width="2" d="M27 15h-1.89A12 12 0 1 0 13.5 30H27a7.5 7.5 0 0 0 0-15Z"/>
  <path fill="#000" d="M18.065 21.094h-1.244a1.22 1.22 0 0 0-.14-.43 1.092 1.092 0 0 0-.27-.323 1.188 1.188 0 0 0-.38-.205 1.455 1.455 0 0 0-.463-.07c-.301 0-.564.074-.787.224a1.433 1.433 0 0 0-.52.648c-.123.282-.185.625-.185 1.028 0 .415.062.763.185 1.045.125.283.3.496.523.64.223.143.482.215.775.215.165 0 .318-.021.458-.065a1.097 1.097 0 0 0 .65-.5c.074-.121.125-.26.154-.415l1.244.006a2.323 2.323 0 0 1-.756 1.435 2.42 2.42 0 0 1-.767.46c-.295.112-.63.168-1.003.168-.518 0-.982-.118-1.392-.353a2.5 2.5 0 0 1-.966-1.02c-.234-.445-.352-.983-.352-1.616 0-.635.12-1.174.358-1.62.239-.445.563-.784.972-1.017.409-.234.87-.352 1.38-.352.338 0 .65.048.938.142.29.095.546.233.77.415.223.18.405.4.545.662.142.261.233.56.273.898Zm6.229.872c0 .634-.12 1.174-.361 1.62a2.502 2.502 0 0 1-.977 1.02 2.771 2.771 0 0 1-1.387.348c-.517 0-.98-.117-1.392-.352a2.508 2.508 0 0 1-.974-1.02c-.239-.445-.358-.983-.358-1.616 0-.635.12-1.174.358-1.62.238-.445.563-.784.974-1.017a2.756 2.756 0 0 1 1.392-.352c.514 0 .976.118 1.387.352.413.233.738.572.977 1.018.24.445.36.984.36 1.619Zm-1.247 0c0-.411-.062-.758-.185-1.04a1.408 1.408 0 0 0-.514-.642 1.384 1.384 0 0 0-.779-.219c-.297 0-.557.073-.778.22a1.415 1.415 0 0 0-.517.641c-.121.282-.182.629-.182 1.04 0 .41.06.758.182 1.04.123.282.295.496.517.642.221.146.48.218.778.218.298 0 .557-.072.779-.218.221-.146.393-.36.514-.642.123-.282.185-.63.185-1.04Z"/>
</svg>
