<svg xmlns="http://www.w3.org/2000/svg" width="36" height="36" fill="none" viewBox="0 0 36 36">
  <path stroke="#000" stroke-linecap="round" stroke-linejoin="round" stroke-width="2" d="M27 15h-1.89A12 12 0 1 0 13.5 30H27a7.5 7.5 0 0 0 0-15Z"/>
  <path fill="#000" d="M14.983 21.094h-1.244a1.216 1.216 0 0 0-.14-.43 1.09 1.09 0 0 0-.27-.323 1.186 1.186 0 0 0-.38-.205 1.455 1.455 0 0 0-.463-.07c-.301 0-.564.074-.787.224a1.433 1.433 0 0 0-.52.648c-.123.282-.185.625-.185 1.028 0 .415.062.763.185 1.045.125.283.3.496.523.64.223.143.482.215.775.215.165 0 .317-.021.458-.065a1.096 1.096 0 0 0 .65-.5c.074-.121.125-.26.154-.415l1.244.006a2.323 2.323 0 0 1-.756 1.435c-.214.193-.47.346-.767.46-.295.112-.63.168-1.003.168-.519 0-.983-.118-1.392-.353a2.501 2.501 0 0 1-.966-1.02c-.234-.445-.352-.983-.352-1.616 0-.635.12-1.174.358-1.62.239-.445.563-.784.972-1.017a2.73 2.73 0 0 1 1.38-.352c.337 0 .65.048.938.142.29.095.546.233.77.415.223.18.405.4.545.662.142.261.233.56.273.898Zm6.229.872c0 .634-.12 1.174-.361 1.62a2.502 2.502 0 0 1-.977 1.02 2.771 2.771 0 0 1-1.387.348c-.517 0-.98-.117-1.392-.352a2.508 2.508 0 0 1-.974-1.02c-.239-.445-.358-.983-.358-1.616 0-.635.12-1.174.358-1.62a2.49 2.49 0 0 1 .974-1.017 2.756 2.756 0 0 1 1.392-.352c.514 0 .976.118 1.387.352.413.233.738.572.977 1.018.24.445.36.984.36 1.619Zm-1.247 0c0-.411-.062-.758-.185-1.04a1.407 1.407 0 0 0-.514-.642 1.384 1.384 0 0 0-.779-.219c-.297 0-.557.073-.778.22a1.415 1.415 0 0 0-.517.641c-.122.282-.182.629-.182 1.04 0 .41.06.758.182 1.04.123.282.295.496.517.642.221.146.48.218.778.218.298 0 .557-.072.779-.218.221-.146.393-.36.514-.642.123-.282.184-.63.184-1.04Zm2.124 2.909v-.886l2.07-1.918a7.48 7.48 0 0 0 .444-.46 1.8 1.8 0 0 0 .276-.4.993.993 0 0 0 .093-.43.808.808 0 0 0-.116-.44.764.764 0 0 0-.318-.287.997.997 0 0 0-.458-.102.962.962 0 0 0-.466.108.744.744 0 0 0-.306.31 1.005 1.005 0 0 0-.108.48h-1.168c0-.381.086-.712.259-.992.172-.28.413-.497.724-.65.31-.154.668-.23 1.074-.23.416 0 .78.073 1.088.22.31.147.552.35.724.609.173.26.259.557.259.892 0 .22-.044.436-.13.65-.086.214-.239.452-.458.713-.22.26-.53.572-.93.935l-.849.832v.04h2.444v1.006h-4.148Z"/>
</svg>
