<svg xmlns="http://www.w3.org/2000/svg" width="254" height="26" fill="none" viewBox="0 0 254 26">
  <path fill="#00A3FF" d="M1.415 10H.307L3.51 1.273h1.091L7.807 10H6.699L4.09 2.653h-.068L1.415 10Zm.409-3.41H6.29v.938H1.824v-.937Zm25.665-2.807a1.079 1.079 0 0 0-.439-.801c-.259-.19-.61-.286-1.053-.286a2.01 2.01 0 0 0-.762.128 1.073 1.073 0 0 0-.477.345.83.83 0 0 0-.162.503.718.718 0 0 0 .098.409c.073.116.174.217.302.303.128.082.276.154.443.217.168.06.347.11.537.153l.784.188c.381.085.73.199 1.049.34.318.143.593.317.826.525.233.207.414.452.541.733.131.281.198.603.2.967-.002.534-.138.997-.408 1.39-.267.389-.654.691-1.16.907-.502.213-1.109.32-1.819.32-.705 0-1.318-.108-1.84-.324-.52-.216-.927-.536-1.22-.96-.29-.425-.441-.952-.456-1.58h1.786c.02.293.104.537.251.733.15.193.351.34.601.439.253.096.538.145.857.145.312 0 .584-.046.814-.137a1.23 1.23 0 0 0 .54-.379.876.876 0 0 0 .193-.558.725.725 0 0 0-.175-.494 1.324 1.324 0 0 0-.503-.341 5.112 5.112 0 0 0-.805-.256l-.95-.239c-.736-.179-1.317-.459-1.744-.84-.426-.38-.637-.893-.635-1.538-.002-.528.138-.99.422-1.384a2.84 2.84 0 0 1 1.18-.925c.5-.222 1.069-.333 1.705-.333.648 0 1.213.111 1.696.333.486.221.864.53 1.134.925.27.394.409.852.418 1.372h-1.769ZM30.584 10V3.455h1.73v1.154h.077c.136-.383.363-.686.681-.907.319-.222.7-.333 1.142-.333.45 0 .831.113 1.147.337.315.222.525.523.63.903h.069c.133-.375.375-.674.724-.899.352-.227.769-.34 1.249-.34.61 0 1.106.194 1.487.583.383.386.575.935.575 1.645V10h-1.81V5.956c0-.364-.097-.636-.29-.818a1.016 1.016 0 0 0-.725-.273c-.33 0-.587.105-.771.315-.185.208-.277.482-.277.823V10h-1.76V5.918c0-.321-.093-.577-.277-.767-.182-.19-.422-.286-.72-.286a1 1 0 0 0-.546.153c-.16.1-.285.24-.38.422a1.34 1.34 0 0 0-.14.631V10h-1.815Zm12.812.124c-.418 0-.79-.073-1.117-.218a1.797 1.797 0 0 1-.775-.652c-.188-.29-.282-.65-.282-1.082 0-.364.067-.67.2-.916.134-.247.316-.446.546-.597.23-.15.491-.264.784-.34.296-.078.605-.131.93-.163.38-.04.687-.076.92-.11.233-.037.402-.091.507-.162a.356.356 0 0 0 .157-.316v-.025c0-.27-.085-.48-.255-.627-.168-.148-.407-.221-.716-.221-.327 0-.587.072-.78.217a1 1 0 0 0-.384.537l-1.679-.136c.086-.398.253-.742.503-1.032.25-.292.573-.517.968-.673.397-.16.858-.239 1.38-.239.364 0 .712.043 1.044.128.335.085.632.217.89.396.262.18.468.41.619.69.15.28.226.613.226 1.002V10H45.36v-.908h-.051a1.847 1.847 0 0 1-.422.542 1.953 1.953 0 0 1-.635.362 2.623 2.623 0 0 1-.856.128Zm.52-1.253c.267 0 .502-.053.707-.158.204-.108.365-.253.481-.435a1.12 1.12 0 0 0 .175-.617v-.695a.971.971 0 0 1-.234.102 4.26 4.26 0 0 1-.328.081 16.62 16.62 0 0 1-.367.064l-.332.047c-.213.031-.4.08-.559.15a.892.892 0 0 0-.37.276.675.675 0 0 0-.132.426c0 .247.09.436.268.567.182.128.412.192.69.192ZM48.49 10V3.455h1.76v1.142h.068c.12-.407.32-.713.601-.92a1.58 1.58 0 0 1 .972-.316 2.75 2.75 0 0 1 .57.064v1.61a2.371 2.371 0 0 0-.353-.068c-.15-.02-.288-.03-.413-.03-.267 0-.506.059-.716.175a1.286 1.286 0 0 0-.495.477c-.119.205-.179.44-.179.708V10H48.49Zm8.72-6.545v1.363h-3.942V3.455h3.942Zm-3.047-1.569h1.815V7.99a.83.83 0 0 0 .077.392.42.42 0 0 0 .213.191.88.88 0 0 0 .324.056c.085 0 .17-.007.256-.021.085-.018.15-.03.196-.039l.285 1.351c-.09.028-.219.061-.383.098-.165.04-.365.064-.601.072-.438.018-.821-.04-1.15-.174a1.605 1.605 0 0 1-.764-.622c-.181-.282-.27-.637-.268-1.066v-6.34ZM61.203 10V1.273h5.882v1.521h-4.036v2.08h3.733v1.52h-3.733V8.48h4.053V10h-5.898Zm9.18.124c-.417 0-.789-.073-1.116-.218a1.798 1.798 0 0 1-.775-.652c-.188-.29-.281-.65-.281-1.082 0-.364.066-.67.2-.916.133-.247.315-.446.545-.597.23-.15.492-.264.784-.34.296-.078.606-.131.93-.163.38-.04.687-.076.92-.11.233-.037.402-.091.507-.162a.356.356 0 0 0 .158-.316v-.025c0-.27-.086-.48-.256-.627-.168-.148-.406-.221-.716-.221-.327 0-.587.072-.78.217a1 1 0 0 0-.383.537l-1.68-.136c.086-.398.254-.742.504-1.032.25-.292.572-.517.967-.673.398-.16.858-.239 1.38-.239.364 0 .712.043 1.045.128.335.085.632.217.89.396.262.18.468.41.618.69.15.28.226.613.226 1.002V10h-1.722v-.908h-.05a1.847 1.847 0 0 1-.423.542 1.953 1.953 0 0 1-.635.362 2.624 2.624 0 0 1-.856.128Zm.52-1.253c.268 0 .504-.053.708-.158.205-.108.365-.253.482-.435a1.12 1.12 0 0 0 .174-.617v-.695a.971.971 0 0 1-.234.102 4.271 4.271 0 0 1-.328.081 16.55 16.55 0 0 1-.367.064l-.332.047c-.213.031-.4.08-.558.15a.892.892 0 0 0-.37.276.675.675 0 0 0-.133.426c0 .247.09.436.268.567.182.128.412.192.69.192ZM75.479 10V3.455h1.76v1.142h.069c.119-.407.32-.713.6-.92a1.58 1.58 0 0 1 .972-.316 2.746 2.746 0 0 1 .57.064v1.61a2.37 2.37 0 0 0-.353-.068c-.15-.02-.288-.03-.413-.03-.267 0-.506.059-.716.175a1.286 1.286 0 0 0-.494.477c-.12.205-.18.44-.18.708V10h-1.815Zm6.726-8.727V10h-1.816V1.273h1.816Zm2.575 11.181c-.23 0-.446-.018-.648-.055a2.353 2.353 0 0 1-.494-.132l.409-1.355c.213.065.405.1.575.106a.73.73 0 0 0 .448-.119c.127-.085.231-.23.31-.434l.107-.277-2.348-6.733h1.91l1.354 4.806h.069l1.367-4.806h1.922l-2.544 7.252c-.122.353-.288.66-.498.92-.208.265-.47.468-.789.61-.318.145-.701.217-1.15.217ZM96.595 10H93.5V1.273h3.119c.878 0 1.634.174 2.267.524a3.53 3.53 0 0 1 1.462 1.496c.343.65.515 1.429.515 2.335 0 .909-.172 1.69-.515 2.344a3.544 3.544 0 0 1-1.47 1.504c-.637.35-1.398.524-2.285.524Zm-1.25-1.581h1.173c.545 0 1.004-.097 1.376-.29.375-.196.656-.498.844-.907.19-.412.285-.944.285-1.594 0-.645-.095-1.172-.285-1.581a1.848 1.848 0 0 0-.84-.904c-.372-.193-.83-.29-1.376-.29h-1.176V8.42Zm9.835 1.709c-.673 0-1.253-.137-1.739-.41a2.798 2.798 0 0 1-1.116-1.167c-.261-.506-.392-1.104-.392-1.794 0-.673.131-1.264.392-1.773a2.893 2.893 0 0 1 1.104-1.189c.477-.284 1.037-.426 1.679-.426.431 0 .833.07 1.206.21.375.135.701.341.98.617.281.276.5.622.656 1.04.156.415.234.9.234 1.457v.499h-5.527V6.067h3.818c0-.262-.056-.493-.17-.695a1.221 1.221 0 0 0-.473-.473 1.349 1.349 0 0 0-.695-.175 1.4 1.4 0 0 0-.733.192c-.21.125-.375.294-.494.507-.119.21-.18.445-.183.703v1.07c0 .324.06.604.179.84.122.235.294.417.516.545.221.128.484.192.788.192.202 0 .386-.029.554-.085a1.11 1.11 0 0 0 .703-.673l1.679.11c-.085.403-.26.756-.524 1.057a2.65 2.65 0 0 1-1.014.699c-.412.165-.888.247-1.428.247Zm7.67-6.673v1.363h-3.941V3.455h3.941Zm-3.046-1.569h1.815V7.99a.83.83 0 0 0 .077.392.42.42 0 0 0 .213.191.874.874 0 0 0 .324.056c.085 0 .17-.007.255-.021l.196-.039.286 1.351a5.096 5.096 0 0 1-.384.098c-.164.04-.365.064-.601.072-.437.018-.821-.04-1.15-.174a1.606 1.606 0 0 1-.763-.622c-.182-.282-.271-.637-.268-1.066v-6.34Zm7.142 8.242c-.674 0-1.253-.137-1.739-.41a2.798 2.798 0 0 1-1.116-1.167c-.262-.506-.392-1.104-.392-1.794 0-.673.13-1.264.392-1.773a2.897 2.897 0 0 1 1.103-1.189c.478-.284 1.037-.426 1.679-.426.432 0 .834.07 1.206.21.375.135.702.341.98.617.282.276.5.622.657 1.04.156.415.234.9.234 1.457v.499h-5.527V6.067h3.818c0-.262-.057-.493-.17-.695a1.228 1.228 0 0 0-.473-.473 1.351 1.351 0 0 0-.695-.175c-.276 0-.52.064-.733.192-.21.125-.375.294-.494.507-.12.21-.181.445-.183.703v1.07c0 .324.059.604.179.84.122.235.294.417.515.545.222.128.485.192.788.192.202 0 .387-.029.554-.085.168-.057.312-.143.431-.256.119-.114.21-.253.273-.418l1.679.111c-.086.403-.26.756-.525 1.057a2.627 2.627 0 0 1-1.014.699c-.412.165-.888.247-1.427.247Zm7.146 0c-.67 0-1.247-.142-1.73-.426a2.878 2.878 0 0 1-1.108-1.193c-.256-.509-.384-1.094-.384-1.756 0-.67.13-1.259.388-1.764a2.885 2.885 0 0 1 1.112-1.19c.48-.286 1.052-.43 1.713-.43.571 0 1.071.104 1.5.311.429.208.769.499 1.019.874.25.375.388.815.413 1.321h-1.713a1.323 1.323 0 0 0-.383-.788c-.205-.202-.473-.303-.806-.303a1.22 1.22 0 0 0-.737.23c-.207.15-.369.37-.486.66-.116.29-.174.641-.174 1.053 0 .418.056.773.17 1.066.116.292.28.515.49.669.21.153.456.23.737.23a1.2 1.2 0 0 0 .559-.128c.167-.085.305-.209.413-.37.111-.166.183-.363.217-.593h1.713c-.028.5-.165.94-.409 1.32a2.468 2.468 0 0 1-1.001.887c-.426.213-.931.32-1.513.32Zm7.567-6.673v1.363h-3.942V3.455h3.942Zm-3.047-1.569h1.816V7.99a.83.83 0 0 0 .076.392.42.42 0 0 0 .213.191.881.881 0 0 0 .324.056c.085 0 .171-.007.256-.021.085-.018.15-.03.196-.039l.285 1.351c-.09.028-.218.061-.383.098-.165.04-.365.064-.601.072-.437.018-.821-.04-1.151-.174a1.608 1.608 0 0 1-.762-.622c-.182-.282-.272-.637-.269-1.066v-6.34Zm4.23 8.114V3.455h1.815V10h-1.815Zm.912-7.39a.987.987 0 0 1-.695-.268.872.872 0 0 1-.286-.652c0-.25.096-.464.286-.643a.978.978 0 0 1 .695-.273c.269 0 .5.091.69.273.193.179.29.393.29.643 0 .253-.097.47-.29.652a.971.971 0 0 1-.69.269Zm5.315 7.518c-.662 0-1.235-.14-1.718-.422a2.885 2.885 0 0 1-1.112-1.185c-.261-.508-.392-1.098-.392-1.768 0-.676.131-1.267.392-1.773a2.85 2.85 0 0 1 1.112-1.185c.483-.284 1.056-.426 1.718-.426.661 0 1.232.142 1.713.426a2.85 2.85 0 0 1 1.116 1.185c.261.506.392 1.097.392 1.773 0 .67-.131 1.26-.392 1.768a2.88 2.88 0 0 1-1.116 1.185c-.481.281-1.052.422-1.713.422Zm.008-1.406c.301 0 .553-.086.754-.256.202-.173.354-.41.456-.707.105-.299.158-.638.158-1.019 0-.38-.053-.72-.158-1.018a1.581 1.581 0 0 0-.456-.708 1.115 1.115 0 0 0-.754-.26c-.304 0-.56.087-.767.26-.205.173-.359.41-.464.708a3.112 3.112 0 0 0-.154 1.018c0 .38.051.72.154 1.019.105.298.259.534.464.707.207.17.463.256.767.256Zm6.209-2.506V10h-1.815V3.455h1.73v1.154h.076a1.83 1.83 0 0 1 .729-.903c.341-.224.754-.337 1.24-.337.455 0 .851.1 1.189.299.338.198.601.483.788.852.188.366.282.804.282 1.312V10h-1.816V6.156c.003-.4-.099-.713-.307-.937-.207-.228-.492-.341-.856-.341-.244 0-.46.052-.648.158a1.1 1.1 0 0 0-.434.46 1.587 1.587 0 0 0-.158.72Zm10.293 3.908c-.417 0-.79-.073-1.116-.218a1.795 1.795 0 0 1-.776-.652c-.187-.29-.281-.65-.281-1.082 0-.364.067-.67.2-.916.134-.247.316-.446.546-.597.23-.15.491-.264.784-.34a5.9 5.9 0 0 1 .929-.163c.38-.04.687-.076.92-.11.233-.037.402-.091.507-.162a.356.356 0 0 0 .158-.316v-.025c0-.27-.085-.48-.256-.627-.167-.148-.406-.221-.716-.221-.326 0-.586.072-.779.217a.994.994 0 0 0-.384.537l-1.679-.136a2.28 2.28 0 0 1 .503-1.032c.25-.292.572-.517.967-.673.398-.16.858-.239 1.381-.239a4.2 4.2 0 0 1 1.044.128c.335.085.632.217.891.396.261.18.467.41.617.69.151.28.226.613.226 1.002V10h-1.721v-.908h-.051a1.865 1.865 0 0 1-.422.542 1.953 1.953 0 0 1-.635.362 2.626 2.626 0 0 1-.857.128Zm.52-1.253c.267 0 .503-.053.707-.158.205-.108.366-.253.482-.435a1.12 1.12 0 0 0 .175-.617v-.695a.972.972 0 0 1-.235.102 4.222 4.222 0 0 1-.328.081c-.122.023-.244.044-.366.064l-.333.047a2.244 2.244 0 0 0-.558.15.894.894 0 0 0-.371.276.675.675 0 0 0-.132.426c0 .247.09.436.269.567.182.128.412.192.69.192Zm6.39-2.655V10h-1.815V3.455h1.73v1.154h.076a1.83 1.83 0 0 1 .729-.903c.341-.224.754-.337 1.24-.337.455 0 .851.1 1.189.299.338.198.601.483.788.852.188.366.282.804.282 1.312V10h-1.816V6.156c.003-.4-.099-.713-.306-.937-.208-.228-.493-.341-.857-.341-.244 0-.46.052-.648.158a1.1 1.1 0 0 0-.434.46 1.587 1.587 0 0 0-.158.72Zm8.061 3.89c-.497 0-.947-.127-1.35-.383-.401-.259-.719-.638-.955-1.138-.233-.503-.349-1.12-.349-1.85 0-.75.12-1.373.362-1.87.241-.5.562-.874.963-1.12.403-.25.845-.376 1.325-.376.367 0 .672.063.916.188.248.122.446.275.597.46.153.182.27.36.349.537h.056V1.273h1.811V10h-1.79V8.952h-.077a2.34 2.34 0 0 1-.362.54 1.798 1.798 0 0 1-.601.44c-.244.116-.542.175-.895.175Zm.576-1.444c.292 0 .539-.08.741-.239a1.51 1.51 0 0 0 .469-.677c.111-.29.166-.63.166-1.019 0-.389-.054-.727-.162-1.014a1.453 1.453 0 0 0-.469-.665 1.19 1.19 0 0 0-.745-.234c-.299 0-.55.08-.755.243a1.488 1.488 0 0 0-.464.673c-.105.287-.158.62-.158.997 0 .38.053.718.158 1.01.108.29.263.517.464.682.205.162.456.243.755.243ZM180.083 10h-1.977l3.013-8.727h2.377L186.505 10h-1.977l-2.186-6.733h-.069L180.083 10Zm-.123-3.43h4.67v1.44h-4.67V6.57Zm9.377-5.297V10h-1.816V1.273h1.816Zm4.437 8.855c-.674 0-1.253-.137-1.739-.41a2.798 2.798 0 0 1-1.116-1.167c-.262-.506-.392-1.104-.392-1.794 0-.673.13-1.264.392-1.773a2.897 2.897 0 0 1 1.103-1.189c.478-.284 1.037-.426 1.679-.426.432 0 .834.07 1.206.21.375.135.702.341.98.617.282.276.5.622.657 1.04.156.415.234.9.234 1.457v.499h-5.527V6.067h3.818c0-.262-.057-.493-.17-.695a1.228 1.228 0 0 0-.473-.473 1.351 1.351 0 0 0-.695-.175c-.275 0-.52.064-.733.192-.21.125-.375.294-.494.507-.119.21-.18.445-.183.703v1.07c0 .324.059.604.179.84.122.235.294.417.515.545.222.128.485.192.789.192.201 0 .386-.029.554-.085a1.15 1.15 0 0 0 .43-.256c.119-.114.21-.253.273-.418l1.679.111c-.086.403-.26.756-.524 1.057-.262.298-.6.531-1.015.699-.412.165-.887.247-1.427.247Zm4.189-.128V3.455h1.76v1.142h.068c.119-.407.319-.713.601-.92.281-.211.605-.316.971-.316a2.743 2.743 0 0 1 .571.064v1.61a2.369 2.369 0 0 0-.353-.068 3.191 3.191 0 0 0-.414-.03 1.46 1.46 0 0 0-.716.175 1.287 1.287 0 0 0-.494.477c-.119.205-.179.44-.179.708V10h-1.815Zm8.72-6.545v1.363h-3.942V3.455h3.942Zm-3.047-1.569h1.815V7.99a.83.83 0 0 0 .077.392.42.42 0 0 0 .213.191.878.878 0 0 0 .324.056c.085 0 .17-.007.255-.021l.196-.039.286 1.351a5.096 5.096 0 0 1-.384.098c-.164.04-.365.064-.601.072-.437.018-.821-.04-1.15-.174a1.606 1.606 0 0 1-.763-.622c-.182-.282-.271-.637-.268-1.066v-6.34Zm11.775 1.897a1.08 1.08 0 0 0-.439-.801c-.259-.19-.609-.286-1.053-.286a2.01 2.01 0 0 0-.762.128 1.074 1.074 0 0 0-.478.345.83.83 0 0 0-.162.503.724.724 0 0 0 .098.409c.074.116.175.217.303.303.128.082.276.154.443.217.168.06.347.11.537.153l.784.188c.381.085.73.199 1.048.34.319.143.594.317.827.525.233.207.414.452.541.733.131.281.198.603.201.967-.003.534-.14.997-.409 1.39-.267.389-.654.691-1.16.907-.502.213-1.109.32-1.819.32-.705 0-1.318-.108-1.841-.324a2.699 2.699 0 0 1-1.219-.96c-.29-.425-.442-.952-.456-1.58h1.786c.02.293.103.537.251.733a1.4 1.4 0 0 0 .601.439c.253.096.538.145.857.145.312 0 .583-.046.813-.137.233-.09.414-.217.542-.379a.874.874 0 0 0 .191-.558.727.727 0 0 0-.174-.494 1.333 1.333 0 0 0-.503-.341 5.104 5.104 0 0 0-.806-.256l-.95-.239c-.736-.179-1.317-.459-1.743-.84-.426-.38-.637-.893-.635-1.538-.002-.528.138-.99.422-1.384.287-.395.681-.704 1.181-.925.5-.222 1.068-.333 1.704-.333.648 0 1.213.111 1.696.333.486.221.864.53 1.134.925.27.394.409.852.417 1.372h-1.768Zm4.215 8.671c-.23 0-.446-.018-.647-.055a2.362 2.362 0 0 1-.495-.132l.409-1.355c.214.065.405.1.576.106a.73.73 0 0 0 .447-.119c.128-.085.232-.23.311-.434l.107-.277-2.348-6.733h1.909l1.355 4.806h.068l1.368-4.806h1.922l-2.544 7.252a3 3 0 0 1-.499.92 2.04 2.04 0 0 1-.788.61c-.318.145-.702.217-1.151.217Zm11.357-7.133-1.662.102a.852.852 0 0 0-.183-.383.979.979 0 0 0-.371-.277 1.26 1.26 0 0 0-.541-.107c-.281 0-.519.06-.712.18-.193.116-.29.272-.29.468 0 .156.063.288.188.396.125.108.339.195.643.26l1.185.239c.636.13 1.111.34 1.423.63.313.29.469.671.469 1.143 0 .429-.126.805-.379 1.129-.25.324-.594.577-1.031.758-.435.18-.936.269-1.505.269-.866 0-1.556-.18-2.071-.541a2.11 2.11 0 0 1-.899-1.483l1.786-.094a.915.915 0 0 0 .392.605c.207.136.473.205.797.205.318 0 .573-.061.767-.184.196-.125.295-.285.298-.481a.503.503 0 0 0-.209-.405c-.136-.108-.346-.19-.631-.247l-1.133-.226c-.639-.128-1.115-.35-1.428-.665-.309-.315-.464-.717-.464-1.206 0-.42.114-.782.341-1.086.23-.304.552-.539.967-.704.418-.164.906-.247 1.466-.247.827 0 1.477.175 1.952.524.477.35.755.826.835 1.428Zm4.774-1.866v1.363h-3.942V3.455h3.942Zm-3.047-1.569h1.815V7.99a.83.83 0 0 0 .077.392.42.42 0 0 0 .213.191.881.881 0 0 0 .324.056c.085 0 .17-.007.256-.021.085-.018.15-.03.196-.039l.285 1.351a5.177 5.177 0 0 1-.383.098c-.165.04-.366.064-.601.072-.438.018-.821-.04-1.151-.174a1.606 1.606 0 0 1-.763-.622c-.181-.282-.271-.637-.268-1.066v-6.34Zm7.142 8.242c-.673 0-1.253-.137-1.739-.41a2.798 2.798 0 0 1-1.116-1.167c-.262-.506-.392-1.104-.392-1.794 0-.673.13-1.264.392-1.773a2.897 2.897 0 0 1 1.103-1.189c.478-.284 1.037-.426 1.679-.426.432 0 .834.07 1.206.21.375.135.702.341.981.617.281.276.5.622.656 1.04.156.415.234.9.234 1.457v.499h-5.527V6.067h3.818c0-.262-.056-.493-.17-.695a1.221 1.221 0 0 0-.473-.473 1.349 1.349 0 0 0-.695-.175c-.275 0-.52.064-.733.192-.21.125-.375.294-.494.507-.119.21-.18.445-.183.703v1.07c0 .324.059.604.179.84.122.235.294.417.515.545.222.128.485.192.789.192.201 0 .386-.029.554-.085a1.15 1.15 0 0 0 .43-.256c.119-.114.21-.253.273-.418l1.679.111c-.085.403-.26.756-.524 1.057-.262.298-.6.531-1.015.699-.411.165-.887.247-1.427.247Zm4.189-.128V3.455h1.73v1.154h.077c.136-.383.363-.686.681-.907.319-.222.699-.333 1.143-.333.448 0 .83.113 1.146.337.315.222.525.523.631.903h.068a1.74 1.74 0 0 1 .724-.899c.352-.227.769-.34 1.249-.34.61 0 1.106.194 1.487.583.383.386.575.935.575 1.645V10h-1.811V5.956c0-.364-.096-.636-.29-.818a1.014 1.014 0 0 0-.724-.273c-.33 0-.587.105-.771.315-.185.208-.277.482-.277.823V10h-1.76V5.918c0-.321-.093-.577-.277-.767-.182-.19-.422-.286-.72-.286-.202 0-.384.051-.546.153-.159.1-.285.24-.379.422-.094.18-.141.39-.141.631V10h-1.815ZM3.835 18.454v.853H.307v-.852h3.528ZM1.364 25v-7.449c0-.375.088-.687.264-.937.176-.25.405-.438.686-.563.281-.125.578-.187.89-.187.248 0 .45.02.606.06.156.04.272.076.35.11l-.29.87a5.08 5.08 0 0 0-.214-.064 1.29 1.29 0 0 0-.35-.039c-.332 0-.572.084-.72.252-.144.167-.217.413-.217.737V25H1.364Zm6.27.136c-.59 0-1.11-.14-1.555-.421a2.866 2.866 0 0 1-1.04-1.18c-.247-.507-.37-1.098-.37-1.774 0-.681.123-1.277.37-1.785a2.86 2.86 0 0 1 1.04-1.185c.446-.281.964-.422 1.555-.422s1.108.14 1.551.422a2.82 2.82 0 0 1 1.04 1.185c.25.508.375 1.104.375 1.785 0 .677-.125 1.267-.375 1.773-.247.506-.594.9-1.04 1.18-.443.282-.96.422-1.55.422Zm0-.903c.45 0 .818-.115 1.108-.345.29-.23.504-.533.644-.908.139-.375.208-.781.208-1.219 0-.437-.07-.845-.208-1.223a2.06 2.06 0 0 0-.644-.916c-.29-.233-.659-.35-1.108-.35-.449 0-.818.117-1.108.35a2.06 2.06 0 0 0-.643.916 3.51 3.51 0 0 0-.209 1.223c0 .438.07.844.209 1.22.139.374.354.677.643.907.29.23.66.345 1.108.345Zm4.501.767v-6.546h.972v.99h.068c.12-.325.335-.587.648-.79a1.907 1.907 0 0 1 1.057-.302 10.941 10.941 0 0 1 .528.017v1.023a2.985 2.985 0 0 0-.234-.038c-.12-.02-.246-.03-.38-.03-.318 0-.602.067-.852.2a1.47 1.47 0 0 0-.801 1.334V25h-1.006Zm14.592-6.217a1.079 1.079 0 0 0-.439-.802c-.258-.19-.609-.285-1.052-.285-.301 0-.556.043-.763.128a1.073 1.073 0 0 0-.477.345.831.831 0 0 0-.162.503.718.718 0 0 0 .098.409c.074.116.175.217.302.303.128.082.276.154.444.217.167.06.346.11.537.153l.784.188c.38.085.73.199 1.048.34.318.143.594.317.827.525.233.207.413.452.54.733.131.281.198.604.201.967-.003.534-.14.997-.409 1.39-.267.389-.653.691-1.16.907-.502.213-1.108.32-1.819.32-.704 0-1.318-.108-1.84-.324-.52-.216-.927-.536-1.22-.96-.29-.425-.441-.952-.455-1.58h1.785c.02.293.104.537.252.733.15.193.35.34.6.439.253.096.539.145.857.145.313 0 .584-.046.814-.137a1.24 1.24 0 0 0 .541-.379.876.876 0 0 0 .192-.558.725.725 0 0 0-.175-.494 1.325 1.325 0 0 0-.503-.341 5.12 5.12 0 0 0-.805-.256l-.95-.239c-.736-.179-1.317-.458-1.743-.84-.426-.38-.638-.893-.635-1.537-.003-.529.137-.99.422-1.386.287-.394.68-.703 1.18-.924.5-.222 1.068-.333 1.705-.333.647 0 1.213.111 1.696.333.485.221.863.53 1.133.924.27.395.41.853.418 1.373h-1.769Zm6.078 6.345c-.673 0-1.253-.137-1.739-.41a2.802 2.802 0 0 1-1.116-1.167c-.261-.505-.392-1.104-.392-1.794 0-.673.13-1.264.392-1.773.261-.508.63-.905 1.104-1.189.477-.284 1.037-.426 1.679-.426.431 0 .833.07 1.206.21.375.136.701.341.98.617.28.276.5.622.656 1.04.156.415.234.9.234 1.457v.499h-5.527v-1.125H34.1a1.39 1.39 0 0 0-.17-.695 1.221 1.221 0 0 0-.473-.473 1.35 1.35 0 0 0-.695-.175c-.275 0-.52.064-.733.192-.21.125-.375.294-.494.507-.12.21-.18.445-.183.703v1.07c0 .324.06.604.179.84.122.235.294.417.516.545.221.128.484.192.788.192.202 0 .386-.029.554-.085a1.11 1.11 0 0 0 .703-.673l1.679.11c-.085.403-.26.756-.524 1.057a2.65 2.65 0 0 1-1.014.699c-.412.165-.888.247-1.428.247Zm10.115-6.674L40.633 25h-2.045l-2.289-6.546h1.918l1.36 4.684h.068L41 18.454h1.921Zm3.701 6.674c-.673 0-1.252-.137-1.738-.41a2.802 2.802 0 0 1-1.117-1.167c-.261-.505-.392-1.104-.392-1.794 0-.673.131-1.264.392-1.773.262-.508.63-.905 1.104-1.189.477-.284 1.037-.426 1.679-.426.432 0 .834.07 1.206.21.375.136.702.341.98.617.281.276.5.622.656 1.04.157.415.235.9.235 1.457v.499h-5.527v-1.125h3.818a1.39 1.39 0 0 0-.17-.695 1.221 1.221 0 0 0-.474-.473 1.35 1.35 0 0 0-.694-.175c-.276 0-.52.064-.733.192-.21.125-.375.294-.494.507-.12.21-.18.445-.184.703v1.07c0 .324.06.604.18.84.121.235.293.417.515.545.221.128.484.192.788.192.202 0 .387-.029.554-.085a1.111 1.111 0 0 0 .703-.673l1.68.11c-.086.403-.26.756-.525 1.057-.261.298-.6.531-1.014.699-.412.165-.888.247-1.428.247Zm4.19-.128v-6.546h1.76v1.143h.068c.119-.407.32-.713.6-.92a1.58 1.58 0 0 1 .972-.316 2.763 2.763 0 0 1 .571.064v1.61a2.373 2.373 0 0 0-.354-.068c-.15-.02-.288-.03-.413-.03-.267 0-.506.059-.716.175a1.286 1.286 0 0 0-.494.478c-.12.204-.18.44-.18.707V25H50.81Zm7.588.128c-.674 0-1.253-.137-1.739-.41a2.801 2.801 0 0 1-1.116-1.167c-.262-.505-.392-1.104-.392-1.794 0-.673.13-1.264.392-1.773a2.9 2.9 0 0 1 1.103-1.189c.478-.284 1.037-.426 1.68-.426.431 0 .833.07 1.205.21.375.136.702.341.98.617.282.276.5.622.657 1.04.156.415.234.9.234 1.457v.499h-5.527v-1.125h3.818a1.39 1.39 0 0 0-.17-.695 1.221 1.221 0 0 0-.473-.473 1.35 1.35 0 0 0-.695-.175c-.275 0-.52.064-.733.192-.21.125-.375.294-.494.507-.12.21-.18.445-.183.703v1.07c0 .324.06.604.179.84.122.235.294.417.515.545.222.128.485.192.789.192.201 0 .386-.029.554-.085a1.111 1.111 0 0 0 .703-.673l1.679.11c-.086.403-.26.756-.524 1.057-.262.298-.6.531-1.015.699-.412.165-.887.247-1.427.247ZM67.364 25l-2.498-8.727h2.016l1.445 6.064h.072l1.594-6.064h1.726l1.59 6.076h.076l1.444-6.076h2.016L74.348 25H72.55l-1.662-5.706h-.068L69.162 25h-1.798Zm12.715.128c-.674 0-1.253-.137-1.74-.41a2.802 2.802 0 0 1-1.116-1.167c-.261-.505-.392-1.104-.392-1.794 0-.673.131-1.264.392-1.773.262-.508.63-.905 1.104-1.189.477-.284 1.037-.426 1.679-.426.432 0 .834.07 1.206.21.375.136.702.341.98.617.281.276.5.622.656 1.04.157.415.235.9.235 1.457v.499h-5.527v-1.125h3.818a1.39 1.39 0 0 0-.17-.695 1.222 1.222 0 0 0-.473-.473 1.35 1.35 0 0 0-.695-.175c-.276 0-.52.064-.733.192-.21.125-.375.294-.494.507-.12.21-.18.445-.184.703v1.07c0 .324.06.604.18.84.121.235.293.417.515.545.222.128.484.192.788.192.202 0 .387-.029.554-.085a1.111 1.111 0 0 0 .703-.673l1.68.11c-.086.403-.26.756-.525 1.057a2.63 2.63 0 0 1-1.014.699c-.412.165-.888.247-1.427.247Zm6.055-.004c-.418 0-.79-.073-1.117-.218a1.798 1.798 0 0 1-.775-.652c-.188-.29-.281-.65-.281-1.082 0-.364.066-.67.2-.916.133-.247.315-.446.545-.597.23-.15.492-.264.784-.34.296-.078.606-.131.93-.163.38-.04.687-.076.92-.11.233-.037.402-.091.507-.162a.356.356 0 0 0 .158-.316v-.025c0-.27-.086-.48-.256-.627-.168-.148-.406-.221-.716-.221-.327 0-.587.072-.78.217a1 1 0 0 0-.383.537l-1.68-.137c.086-.397.254-.741.504-1.03.25-.293.572-.518.967-.674.398-.16.858-.239 1.38-.239.364 0 .712.043 1.045.128.335.085.632.218.89.396.262.18.468.41.618.69.15.28.226.613.226 1.002V25h-1.722v-.908h-.05a1.846 1.846 0 0 1-.423.542 1.952 1.952 0 0 1-.635.362 2.623 2.623 0 0 1-.856.128Zm.52-1.253c.267 0 .503-.053.707-.158.205-.108.365-.253.482-.435a1.12 1.12 0 0 0 .174-.617v-.695a.974.974 0 0 1-.234.102 4.245 4.245 0 0 1-.328.081c-.122.023-.244.044-.367.064a99.05 99.05 0 0 0-.332.047c-.213.031-.4.08-.558.15a.892.892 0 0 0-.37.276.675.675 0 0 0-.133.426c0 .247.09.436.268.567.182.128.412.192.69.192Zm8.056-5.416v1.363h-3.942v-1.364h3.942Zm-3.047-1.569h1.815v6.103a.83.83 0 0 0 .077.392c.051.09.122.154.213.191a.878.878 0 0 0 .324.056c.085 0 .17-.007.256-.021l.196-.039.285 1.351c-.09.028-.219.061-.383.098-.165.04-.365.064-.601.073-.438.017-.821-.042-1.15-.175a1.606 1.606 0 0 1-.763-.622c-.182-.282-.272-.637-.269-1.066v-6.34Zm6.185 4.33V25h-1.815v-8.727h1.764v3.336h.077c.148-.386.386-.689.716-.907.33-.222.743-.333 1.24-.333.454 0 .851.1 1.189.299.341.196.605.478.792.848.191.366.285.805.282 1.316V25h-1.816v-3.844c.003-.403-.099-.717-.306-.941-.205-.225-.492-.337-.861-.337-.247 0-.466.052-.656.157a1.118 1.118 0 0 0-.444.46c-.105.2-.159.44-.162.72Zm8.656 3.912c-.673 0-1.253-.137-1.738-.41a2.807 2.807 0 0 1-1.117-1.167c-.261-.505-.392-1.104-.392-1.794 0-.673.131-1.264.392-1.773a2.899 2.899 0 0 1 1.104-1.189c.477-.284 1.037-.426 1.679-.426.432 0 .834.07 1.206.21.375.136.701.341.98.617.281.276.5.622.656 1.04.156.415.235.9.235 1.457v.499h-5.527v-1.125h3.818c0-.262-.057-.493-.171-.695a1.215 1.215 0 0 0-.473-.473 1.348 1.348 0 0 0-.694-.175c-.276 0-.52.064-.733.192a1.345 1.345 0 0 0-.495.507c-.119.21-.18.445-.183.703v1.07c0 .324.06.604.179.84.122.235.294.417.516.545.221.128.484.192.788.192.202 0 .386-.029.554-.085a1.098 1.098 0 0 0 .703-.673l1.679.11c-.085.403-.26.756-.524 1.057a2.626 2.626 0 0 1-1.014.699c-.412.165-.888.247-1.428.247Zm4.189-.128v-6.546h1.76v1.143h.068c.12-.407.32-.713.601-.92a1.58 1.58 0 0 1 .972-.316 2.758 2.758 0 0 1 .571.064v1.61a2.357 2.357 0 0 0-.354-.068c-.15-.02-.288-.03-.413-.03-.267 0-.506.059-.716.175a1.28 1.28 0 0 0-.494.478c-.12.204-.179.44-.179.707V25h-1.816Zm7.722 0v-8.727h5.88v1.521h-4.035v2.08h3.733v1.52h-3.733v2.085h4.052V25h-5.897Zm13.416-6.546L129.542 25h-2.045l-2.289-6.546h1.918l1.359 4.684h.069l1.355-4.684h1.922Zm3.701 6.674c-.674 0-1.253-.137-1.739-.41a2.807 2.807 0 0 1-1.117-1.167c-.261-.505-.392-1.104-.392-1.794 0-.673.131-1.264.392-1.773.262-.508.63-.905 1.104-1.189.477-.284 1.037-.426 1.679-.426.432 0 .834.07 1.206.21.375.136.702.341.98.617.281.276.5.622.656 1.04.157.415.235.9.235 1.457v.499h-5.527v-1.125h3.818c0-.262-.057-.493-.17-.695a1.229 1.229 0 0 0-.473-.473 1.352 1.352 0 0 0-.695-.175c-.276 0-.52.064-.733.192-.21.125-.375.294-.494.507-.12.21-.181.445-.184.703v1.07c0 .324.06.604.179.84.123.235.294.417.516.545.222.128.484.192.788.192.202 0 .387-.029.554-.085.168-.057.311-.142.431-.256.119-.114.21-.253.273-.418l1.679.111c-.086.403-.26.756-.525 1.057a2.626 2.626 0 0 1-1.014.699c-.412.165-.888.247-1.427.247Zm6.004-3.912V25h-1.815v-6.546h1.73v1.155h.076a1.83 1.83 0 0 1 .729-.903c.341-.224.754-.337 1.24-.337.455 0 .851.1 1.189.299.338.198.601.483.788.852.188.366.282.804.282 1.312V25h-1.816v-3.844c.003-.4-.099-.713-.307-.937-.207-.228-.492-.341-.856-.341-.244 0-.46.052-.648.157a1.1 1.1 0 0 0-.434.46 1.588 1.588 0 0 0-.158.72Zm9.131-2.762v1.364h-3.942v-1.364h3.942Zm-3.047-1.568h1.815v6.103a.83.83 0 0 0 .077.392c.051.09.122.154.213.191a.88.88 0 0 0 .324.056c.085 0 .17-.007.256-.021l.196-.039.285 1.351a5.184 5.184 0 0 1-.383.098c-.165.04-.365.064-.601.073-.438.017-.821-.042-1.151-.175a1.61 1.61 0 0 1-.763-.622c-.181-.282-.271-.637-.268-1.066v-6.34Zm9.593 3.435-1.662.102a.851.851 0 0 0-.183-.383.967.967 0 0 0-.37-.277 1.263 1.263 0 0 0-.542-.107c-.281 0-.518.06-.711.18-.194.116-.29.272-.29.468 0 .156.062.288.187.396.125.108.34.195.644.26l1.185.239c.636.13 1.11.34 1.423.63.312.29.469.671.469 1.143 0 .429-.127.805-.38 1.129-.25.324-.593.577-1.031.758-.435.18-.936.269-1.504.269-.867 0-1.557-.18-2.071-.541a2.106 2.106 0 0 1-.899-1.483l1.785-.094a.919.919 0 0 0 .392.605c.208.136.473.205.797.205.318 0 .574-.061.767-.184.196-.125.296-.285.298-.481a.499.499 0 0 0-.208-.405c-.137-.108-.347-.19-.631-.247l-1.134-.226c-.639-.128-1.115-.35-1.427-.665-.31-.315-.465-.717-.465-1.206 0-.42.114-.782.341-1.086.23-.304.553-.539.968-.704.417-.164.906-.247 1.465-.247.827 0 1.478.175 1.952.524.477.35.756.826.835 1.428Z"/>
</svg>
