<svg xmlns="http://www.w3.org/2000/svg" width="704" height="251" fill="none" viewBox="0 0 704 251">
  <path fill="#fff" d="M550.5 151c26.234 0 47.5-21.266 47.5-47.5S576.734 56 550.5 56 503 77.266 503 103.5s21.266 47.5 47.5 47.5Z"/>
  <path stroke="#fff" stroke-dasharray="2 10" stroke-width="10" d="M548.932 198.728c52.958 0 95.889-42.932 95.889-95.89s-42.931-95.89-95.889-95.89-95.89 42.932-95.89 95.89 42.932 95.89 95.89 95.89Z"/>
  <path fill="#fff" d="M45.245 250H.001v-45.633H76.82c16.694 0 31.411-5.917 44.153-17.752a63.065 63.065 0 0 0 14.764-20.011 63.53 63.53 0 0 0 5.922-24.218v-.488a3.733 3.733 0 0 1 .121-1.099v-2.196a72.519 72.519 0 0 0-9.376-36.176c-6.251-11.103-15.747-19.665-28.489-25.686a11.394 11.394 0 0 1-.666-.244 1.616 1.616 0 0 1-.544-.366c-.161-.081-.605-.244-1.33-.489a73.984 73.984 0 0 0-12.219-3.908c-.243 0-.486-.021-.725-.062a4.375 4.375 0 0 0-.725-.061 54.156 54.156 0 0 0-10.888-.977H0V25.002h83.11c1.415-.017 2.83.065 4.234.245 27.825 2.605 51.455 14.501 70.892 35.687 19.067 20.236 29.53 47.19 29.154 75.103v2.929c.376 27.913-10.087 54.868-29.154 75.103-19.437 21.188-43.067 33.043-70.892 35.564-.909.236-1.843.359-2.782.366H45.245V250ZM432 25.012 400.79 250h-48.27l-37.744-76.499L277.031 250h-48.268L197.551 25.012h45.728l20.689 147.876 50.809-102 50.809 102 20.689-147.876H432Z"/>
  <path fill="#000" d="M691.183 243.197H458.1L574.641 40.352l116.542 202.845Z"/>
  <path fill="#00D1FF" d="M574.641 54.3 470.106 236.249h209.071L574.641 54.3Zm0-27.896 128.548 223.742H446.094L574.641 26.404Z"/>
  <path fill="#000" d="M689.847 243.198H485.841L587.844 64.071l102.003 179.127Z"/>
  <path fill="#00D1FF" d="m587.844 78.113-90.05 158.136h180.1l-90.05-158.136Zm0-28.084L701.8 250.146H473.889L587.844 50.029Z"/>
  <path fill="#000" d="M689.872 243.198H513.609l88.132-155.455 88.131 155.455Z"/>
  <path fill="#00D1FF" d="M601.741 101.833 525.536 236.25h152.41l-76.205-134.417Zm0-28.178 100.058 176.492H501.682L601.741 73.654Z"/>
  <path fill="#fff" d="M0 116h46v88H0z"/>
</svg>
